<mxfile host="app.diagrams.net" modified="2022-03-20T11:57:59.439Z" agent="5.0 (Windows NT 10.0; Win64; x64) AppleWebKit/537.36 (KHTML, like Gecko) Chrome/99.0.4844.74 Safari/537.36" etag="OBe984TUg_29UfzWjKUK" version="17.1.2" type="github">
  <diagram id="YQ0NtVMurIV4hcWnnMv-" name="Page-1">
    <mxGraphModel dx="720" dy="476" grid="1" gridSize="10" guides="1" tooltips="1" connect="1" arrows="1" fold="1" page="1" pageScale="1" pageWidth="850" pageHeight="1100" math="0" shadow="0">
      <root>
        <mxCell id="0" />
        <mxCell id="1" parent="0" />
        <mxCell id="aB0IRVpQ1B8DTL5Nojgd-87" value="" style="verticalLabelPosition=bottom;verticalAlign=top;html=1;shape=mxgraph.basic.rect;fillColor2=none;strokeWidth=1;size=20;indent=5;rounded=1;shadow=0;glass=0;labelBackgroundColor=none;labelBorderColor=none;sketch=0;fontSize=11;fillColor=#f5f5f5;dashed=1;strokeColor=#666666;fontColor=#333333;" parent="1" vertex="1">
          <mxGeometry x="40" y="130" width="630" height="190" as="geometry" />
        </mxCell>
        <mxCell id="aB0IRVpQ1B8DTL5Nojgd-1" value="Input Batch&amp;nbsp;" style="strokeWidth=2;html=1;shape=mxgraph.flowchart.multi-document;whiteSpace=wrap;fillColor=#ffe6cc;strokeColor=#000000;sketch=0;" parent="1" vertex="1">
          <mxGeometry x="550" y="340" width="88" height="60" as="geometry" />
        </mxCell>
        <mxCell id="aB0IRVpQ1B8DTL5Nojgd-2" value="" style="endArrow=classic;html=1;rounded=0;exitX=0.5;exitY=0;exitDx=0;exitDy=0;exitPerimeter=0;sketch=1;" parent="1" source="aB0IRVpQ1B8DTL5Nojgd-1" edge="1">
          <mxGeometry width="50" height="50" relative="1" as="geometry">
            <mxPoint x="340" y="270" as="sourcePoint" />
            <mxPoint x="594" y="280" as="targetPoint" />
          </mxGeometry>
        </mxCell>
        <mxCell id="aB0IRVpQ1B8DTL5Nojgd-3" value="" style="verticalLabelPosition=bottom;verticalAlign=top;html=1;shape=mxgraph.flowchart.or;strokeColor=#000000;sketch=1;" parent="1" vertex="1">
          <mxGeometry x="573.5" y="240" width="41" height="40" as="geometry" />
        </mxCell>
        <mxCell id="aB0IRVpQ1B8DTL5Nojgd-4" value="" style="endArrow=classic;html=1;rounded=0;exitX=0.5;exitY=0;exitDx=0;exitDy=0;exitPerimeter=0;sketch=1;entryX=0.5;entryY=0.88;entryDx=0;entryDy=0;entryPerimeter=0;" parent="1" target="aB0IRVpQ1B8DTL5Nojgd-5" edge="1">
          <mxGeometry width="50" height="50" relative="1" as="geometry">
            <mxPoint x="593.5" y="240" as="sourcePoint" />
            <mxPoint x="593.5" y="120" as="targetPoint" />
          </mxGeometry>
        </mxCell>
        <mxCell id="aB0IRVpQ1B8DTL5Nojgd-5" value="Augmented&amp;nbsp;&lt;br&gt;Batch" style="strokeWidth=2;html=1;shape=mxgraph.flowchart.multi-document;whiteSpace=wrap;fillColor=#fff2cc;strokeColor=#000000;sketch=0;" parent="1" vertex="1">
          <mxGeometry x="550" y="50" width="88" height="60" as="geometry" />
        </mxCell>
        <mxCell id="aB0IRVpQ1B8DTL5Nojgd-8" value="" style="verticalLabelPosition=bottom;verticalAlign=top;html=1;shape=mxgraph.flowchart.or;strokeColor=#000000;sketch=1;" parent="1" vertex="1">
          <mxGeometry x="410" y="240" width="41" height="40" as="geometry" />
        </mxCell>
        <mxCell id="aB0IRVpQ1B8DTL5Nojgd-17" value="" style="group;labelBorderColor=#97D077;fillColor=#FFA680;labelBackgroundColor=#FF3399;sketch=1;" parent="1" vertex="1" connectable="0">
          <mxGeometry x="200" y="220" width="80" height="80" as="geometry" />
        </mxCell>
        <mxCell id="aB0IRVpQ1B8DTL5Nojgd-10" value="" style="shape=ext;double=1;whiteSpace=wrap;html=1;aspect=fixed;strokeColor=#000000;sketch=1;" parent="aB0IRVpQ1B8DTL5Nojgd-17" vertex="1">
          <mxGeometry width="80" height="80" as="geometry" />
        </mxCell>
        <mxCell id="aB0IRVpQ1B8DTL5Nojgd-11" value="" style="line;strokeWidth=1;direction=south;html=1;perimeter=backbonePerimeter;points=[];outlineConnect=0;sketch=1;" parent="aB0IRVpQ1B8DTL5Nojgd-17" vertex="1">
          <mxGeometry x="10" width="20" height="80" as="geometry" />
        </mxCell>
        <mxCell id="aB0IRVpQ1B8DTL5Nojgd-12" value="" style="line;strokeWidth=1;direction=south;html=1;perimeter=backbonePerimeter;points=[];outlineConnect=0;sketch=1;" parent="aB0IRVpQ1B8DTL5Nojgd-17" vertex="1">
          <mxGeometry x="35" width="10" height="80" as="geometry" />
        </mxCell>
        <mxCell id="aB0IRVpQ1B8DTL5Nojgd-13" value="" style="line;strokeWidth=1;direction=south;html=1;perimeter=backbonePerimeter;points=[];outlineConnect=0;sketch=1;" parent="aB0IRVpQ1B8DTL5Nojgd-17" vertex="1">
          <mxGeometry x="60" width="2" height="80" as="geometry" />
        </mxCell>
        <mxCell id="aB0IRVpQ1B8DTL5Nojgd-14" value="" style="line;strokeWidth=1;direction=south;html=1;perimeter=backbonePerimeter;points=[];outlineConnect=0;rotation=-90;sketch=1;" parent="aB0IRVpQ1B8DTL5Nojgd-17" vertex="1">
          <mxGeometry x="30" y="-20" width="20" height="80" as="geometry" />
        </mxCell>
        <mxCell id="aB0IRVpQ1B8DTL5Nojgd-15" value="" style="line;strokeWidth=1;direction=south;html=1;perimeter=backbonePerimeter;points=[];outlineConnect=0;rotation=-90;sketch=1;" parent="aB0IRVpQ1B8DTL5Nojgd-17" vertex="1">
          <mxGeometry x="30" width="20" height="80" as="geometry" />
        </mxCell>
        <mxCell id="aB0IRVpQ1B8DTL5Nojgd-16" value="" style="line;strokeWidth=1;direction=west;html=1;perimeter=backbonePerimeter;points=[];outlineConnect=0;rotation=-180;sketch=1;" parent="aB0IRVpQ1B8DTL5Nojgd-17" vertex="1">
          <mxGeometry y="50" width="80" height="20" as="geometry" />
        </mxCell>
        <mxCell id="aB0IRVpQ1B8DTL5Nojgd-26" value="" style="verticalLabelPosition=bottom;verticalAlign=top;html=1;shape=mxgraph.basic.tick;labelBackgroundColor=#FF3399;labelBorderColor=#97D077;strokeColor=#000000;strokeWidth=1;fillColor=#66B2FF;sketch=0;" parent="aB0IRVpQ1B8DTL5Nojgd-17" vertex="1">
          <mxGeometry width="20" height="20" as="geometry" />
        </mxCell>
        <mxCell id="aB0IRVpQ1B8DTL5Nojgd-27" value="" style="verticalLabelPosition=bottom;verticalAlign=top;html=1;shape=mxgraph.basic.tick;labelBackgroundColor=#FF3399;labelBorderColor=#97D077;strokeColor=#000000;strokeWidth=1;fillColor=#66B2FF;sketch=0;" parent="aB0IRVpQ1B8DTL5Nojgd-17" vertex="1">
          <mxGeometry x="40" width="20" height="20" as="geometry" />
        </mxCell>
        <mxCell id="aB0IRVpQ1B8DTL5Nojgd-29" value="" style="verticalLabelPosition=bottom;verticalAlign=top;html=1;shape=mxgraph.basic.tick;labelBackgroundColor=#FF3399;labelBorderColor=#97D077;strokeColor=#000000;strokeWidth=1;fillColor=#66B2FF;sketch=0;" parent="aB0IRVpQ1B8DTL5Nojgd-17" vertex="1">
          <mxGeometry x="20" y="60" width="20" height="20" as="geometry" />
        </mxCell>
        <mxCell id="aB0IRVpQ1B8DTL5Nojgd-28" value="" style="verticalLabelPosition=bottom;verticalAlign=top;html=1;shape=mxgraph.basic.tick;labelBackgroundColor=#FF3399;labelBorderColor=#97D077;strokeColor=#000000;strokeWidth=1;fillColor=#66B2FF;sketch=0;" parent="aB0IRVpQ1B8DTL5Nojgd-17" vertex="1">
          <mxGeometry x="60" y="40" width="20" height="20" as="geometry" />
        </mxCell>
        <mxCell id="aB0IRVpQ1B8DTL5Nojgd-18" value="" style="group;fillColor=#dae8fc;strokeColor=#6c8ebf;sketch=1;" parent="1" vertex="1" connectable="0">
          <mxGeometry x="60" y="220" width="80" height="80" as="geometry" />
        </mxCell>
        <mxCell id="aB0IRVpQ1B8DTL5Nojgd-19" value="" style="shape=ext;double=1;whiteSpace=wrap;html=1;aspect=fixed;strokeColor=#000000;sketch=1;" parent="aB0IRVpQ1B8DTL5Nojgd-18" vertex="1">
          <mxGeometry width="80" height="80" as="geometry" />
        </mxCell>
        <mxCell id="aB0IRVpQ1B8DTL5Nojgd-20" value="" style="line;strokeWidth=1;direction=south;html=1;perimeter=backbonePerimeter;points=[];outlineConnect=0;sketch=1;" parent="aB0IRVpQ1B8DTL5Nojgd-18" vertex="1">
          <mxGeometry x="10" width="20" height="80" as="geometry" />
        </mxCell>
        <mxCell id="aB0IRVpQ1B8DTL5Nojgd-21" value="" style="line;strokeWidth=1;direction=south;html=1;perimeter=backbonePerimeter;points=[];outlineConnect=0;sketch=1;" parent="aB0IRVpQ1B8DTL5Nojgd-18" vertex="1">
          <mxGeometry x="35" width="10" height="80" as="geometry" />
        </mxCell>
        <mxCell id="aB0IRVpQ1B8DTL5Nojgd-22" value="" style="line;strokeWidth=1;direction=south;html=1;perimeter=backbonePerimeter;points=[];outlineConnect=0;sketch=1;" parent="aB0IRVpQ1B8DTL5Nojgd-18" vertex="1">
          <mxGeometry x="60" width="2" height="80" as="geometry" />
        </mxCell>
        <mxCell id="aB0IRVpQ1B8DTL5Nojgd-23" value="" style="line;strokeWidth=1;direction=south;html=1;perimeter=backbonePerimeter;points=[];outlineConnect=0;rotation=-90;sketch=1;" parent="aB0IRVpQ1B8DTL5Nojgd-18" vertex="1">
          <mxGeometry x="30" y="-20" width="20" height="80" as="geometry" />
        </mxCell>
        <mxCell id="aB0IRVpQ1B8DTL5Nojgd-24" value="" style="line;strokeWidth=1;direction=south;html=1;perimeter=backbonePerimeter;points=[];outlineConnect=0;rotation=-90;sketch=1;" parent="aB0IRVpQ1B8DTL5Nojgd-18" vertex="1">
          <mxGeometry x="30" width="20" height="80" as="geometry" />
        </mxCell>
        <mxCell id="aB0IRVpQ1B8DTL5Nojgd-25" value="" style="line;strokeWidth=1;direction=west;html=1;perimeter=backbonePerimeter;points=[];outlineConnect=0;rotation=-180;sketch=1;" parent="aB0IRVpQ1B8DTL5Nojgd-18" vertex="1">
          <mxGeometry y="50" width="80" height="20" as="geometry" />
        </mxCell>
        <mxCell id="aB0IRVpQ1B8DTL5Nojgd-40" value="" style="group;fillColor=#f5f5f5;fontColor=#333333;strokeColor=#666666;sketch=1;" parent="1" vertex="1" connectable="0">
          <mxGeometry x="340" y="217.5" width="30" height="85" as="geometry" />
        </mxCell>
        <mxCell id="aB0IRVpQ1B8DTL5Nojgd-39" value="" style="shape=ext;double=1;rounded=0;whiteSpace=wrap;html=1;labelBackgroundColor=#FF3399;labelBorderColor=#97D077;strokeColor=#000000;strokeWidth=1;fillColor=#FFFFFF;sketch=1;" parent="aB0IRVpQ1B8DTL5Nojgd-40" vertex="1">
          <mxGeometry y="2.5" width="30" height="80" as="geometry" />
        </mxCell>
        <mxCell id="aB0IRVpQ1B8DTL5Nojgd-35" value="" style="group;sketch=1;" parent="aB0IRVpQ1B8DTL5Nojgd-40" vertex="1" connectable="0">
          <mxGeometry x="2.5" width="27.5" height="85" as="geometry" />
        </mxCell>
        <mxCell id="aB0IRVpQ1B8DTL5Nojgd-30" value="" style="line;strokeWidth=1;html=1;labelBackgroundColor=#FF3399;labelBorderColor=#97D077;fillColor=#66B2FF;sketch=1;" parent="aB0IRVpQ1B8DTL5Nojgd-35" vertex="1">
          <mxGeometry y="17.5" width="27.5" height="10" as="geometry" />
        </mxCell>
        <mxCell id="aB0IRVpQ1B8DTL5Nojgd-31" value="" style="line;strokeWidth=1;html=1;labelBackgroundColor=#FF3399;labelBorderColor=#97D077;fillColor=#66B2FF;sketch=1;" parent="aB0IRVpQ1B8DTL5Nojgd-35" vertex="1">
          <mxGeometry y="37.5" width="27.5" height="10" as="geometry" />
        </mxCell>
        <mxCell id="aB0IRVpQ1B8DTL5Nojgd-32" value="" style="line;strokeWidth=1;html=1;labelBackgroundColor=#FF3399;labelBorderColor=#97D077;fillColor=#66B2FF;sketch=1;" parent="aB0IRVpQ1B8DTL5Nojgd-35" vertex="1">
          <mxGeometry y="57.5" width="27.5" height="10" as="geometry" />
        </mxCell>
        <mxCell id="aB0IRVpQ1B8DTL5Nojgd-65" value="" style="verticalLabelPosition=bottom;verticalAlign=top;html=1;shape=mxgraph.basic.tick;labelBackgroundColor=#FF3399;labelBorderColor=#97D077;strokeColor=#000000;strokeWidth=1;fillColor=#66B2FF;sketch=0;" parent="aB0IRVpQ1B8DTL5Nojgd-35" vertex="1">
          <mxGeometry x="3.75" y="22.5" width="20" height="20" as="geometry" />
        </mxCell>
        <mxCell id="aB0IRVpQ1B8DTL5Nojgd-73" value="" style="verticalLabelPosition=bottom;verticalAlign=top;html=1;shape=mxgraph.basic.tick;labelBackgroundColor=#FF3399;labelBorderColor=#97D077;strokeColor=#000000;strokeWidth=1;fillColor=#66B2FF;sketch=0;" parent="aB0IRVpQ1B8DTL5Nojgd-35" vertex="1">
          <mxGeometry x="3.75" y="42.5" width="20" height="20" as="geometry" />
        </mxCell>
        <mxCell id="aB0IRVpQ1B8DTL5Nojgd-74" value="" style="verticalLabelPosition=bottom;verticalAlign=top;html=1;shape=mxgraph.basic.tick;labelBackgroundColor=#FF3399;labelBorderColor=#97D077;strokeColor=#000000;strokeWidth=1;fillColor=#66B2FF;sketch=0;" parent="aB0IRVpQ1B8DTL5Nojgd-35" vertex="1">
          <mxGeometry x="3.75" y="62.5" width="20" height="20" as="geometry" />
        </mxCell>
        <mxCell id="aB0IRVpQ1B8DTL5Nojgd-64" value="" style="verticalLabelPosition=bottom;verticalAlign=top;html=1;shape=mxgraph.basic.tick;labelBackgroundColor=#FF3399;labelBorderColor=#97D077;strokeColor=#000000;strokeWidth=1;fillColor=#66B2FF;sketch=0;" parent="aB0IRVpQ1B8DTL5Nojgd-40" vertex="1">
          <mxGeometry x="5" y="2.5" width="20" height="20" as="geometry" />
        </mxCell>
        <mxCell id="aB0IRVpQ1B8DTL5Nojgd-42" value="" style="group;fillColor=#f5f5f5;fontColor=#333333;strokeColor=#666666;" parent="1" vertex="1" connectable="0">
          <mxGeometry x="500" y="217.5" width="30" height="85" as="geometry" />
        </mxCell>
        <mxCell id="aB0IRVpQ1B8DTL5Nojgd-43" value="" style="shape=ext;double=1;rounded=0;whiteSpace=wrap;html=1;labelBackgroundColor=#FF3399;labelBorderColor=#97D077;strokeColor=#000000;strokeWidth=1;fillColor=#FFFFFF;sketch=1;" parent="aB0IRVpQ1B8DTL5Nojgd-42" vertex="1">
          <mxGeometry y="2.5" width="30" height="80" as="geometry" />
        </mxCell>
        <mxCell id="aB0IRVpQ1B8DTL5Nojgd-44" value="" style="group" parent="aB0IRVpQ1B8DTL5Nojgd-42" vertex="1" connectable="0">
          <mxGeometry x="2.5" width="27.5" height="85" as="geometry" />
        </mxCell>
        <mxCell id="aB0IRVpQ1B8DTL5Nojgd-45" value="" style="line;strokeWidth=1;html=1;labelBackgroundColor=#FF3399;labelBorderColor=#97D077;fillColor=#66B2FF;sketch=0;" parent="aB0IRVpQ1B8DTL5Nojgd-44" vertex="1">
          <mxGeometry y="17.5" width="27.5" height="10" as="geometry" />
        </mxCell>
        <mxCell id="aB0IRVpQ1B8DTL5Nojgd-46" value="" style="line;strokeWidth=1;html=1;labelBackgroundColor=#FF3399;labelBorderColor=#97D077;fillColor=#66B2FF;sketch=0;" parent="aB0IRVpQ1B8DTL5Nojgd-44" vertex="1">
          <mxGeometry y="37.5" width="27.5" height="10" as="geometry" />
        </mxCell>
        <mxCell id="aB0IRVpQ1B8DTL5Nojgd-47" value="" style="line;strokeWidth=1;html=1;labelBackgroundColor=#FF3399;labelBorderColor=#97D077;fillColor=#66B2FF;sketch=0;" parent="aB0IRVpQ1B8DTL5Nojgd-44" vertex="1">
          <mxGeometry y="57.5" width="27.5" height="10" as="geometry" />
        </mxCell>
        <mxCell id="aB0IRVpQ1B8DTL5Nojgd-77" value="" style="verticalLabelPosition=bottom;verticalAlign=top;html=1;shape=mxgraph.basic.tick;labelBackgroundColor=#FF3399;labelBorderColor=#97D077;strokeColor=#000000;strokeWidth=1;fillColor=#CCE5FF;sketch=0;" parent="aB0IRVpQ1B8DTL5Nojgd-44" vertex="1">
          <mxGeometry x="3.75" y="22.5" width="20" height="20" as="geometry" />
        </mxCell>
        <mxCell id="aB0IRVpQ1B8DTL5Nojgd-78" value="" style="verticalLabelPosition=bottom;verticalAlign=top;html=1;shape=mxgraph.basic.tick;labelBackgroundColor=#FF3399;labelBorderColor=#97D077;strokeColor=#000000;strokeWidth=1;fillColor=#CCE5FF;sketch=0;" parent="aB0IRVpQ1B8DTL5Nojgd-44" vertex="1">
          <mxGeometry x="3.75" y="42.5" width="20" height="20" as="geometry" />
        </mxCell>
        <mxCell id="aB0IRVpQ1B8DTL5Nojgd-79" value="" style="verticalLabelPosition=bottom;verticalAlign=top;html=1;shape=mxgraph.basic.tick;labelBackgroundColor=#FF3399;labelBorderColor=#97D077;strokeColor=#000000;strokeWidth=1;fillColor=#CCE5FF;sketch=0;" parent="aB0IRVpQ1B8DTL5Nojgd-44" vertex="1">
          <mxGeometry x="3.75" y="62.5" width="20" height="20" as="geometry" />
        </mxCell>
        <mxCell id="aB0IRVpQ1B8DTL5Nojgd-75" value="" style="verticalLabelPosition=bottom;verticalAlign=top;html=1;shape=mxgraph.basic.tick;labelBackgroundColor=#FF3399;labelBorderColor=#97D077;strokeColor=#000000;strokeWidth=1;fillColor=#CCE5FF;sketch=0;" parent="aB0IRVpQ1B8DTL5Nojgd-42" vertex="1">
          <mxGeometry x="6.25" y="2.5" width="20" height="20" as="geometry" />
        </mxCell>
        <mxCell id="aB0IRVpQ1B8DTL5Nojgd-48" value="" style="endArrow=classic;html=1;rounded=0;exitX=1;exitY=0.5;exitDx=0;exitDy=0;exitPerimeter=0;entryX=0;entryY=0.5;entryDx=0;entryDy=0;sketch=1;" parent="1" source="aB0IRVpQ1B8DTL5Nojgd-24" target="aB0IRVpQ1B8DTL5Nojgd-10" edge="1">
          <mxGeometry width="50" height="50" relative="1" as="geometry">
            <mxPoint x="340" y="270" as="sourcePoint" />
            <mxPoint x="390" y="220" as="targetPoint" />
          </mxGeometry>
        </mxCell>
        <mxCell id="aB0IRVpQ1B8DTL5Nojgd-50" value="" style="endArrow=classic;html=1;rounded=0;exitX=1;exitY=0.5;exitDx=0;exitDy=0;exitPerimeter=0;entryX=0;entryY=0.5;entryDx=0;entryDy=0;sketch=1;" parent="1" edge="1">
          <mxGeometry width="50" height="50" relative="1" as="geometry">
            <mxPoint x="280" y="259.5" as="sourcePoint" />
            <mxPoint x="340" y="259.5" as="targetPoint" />
          </mxGeometry>
        </mxCell>
        <mxCell id="aB0IRVpQ1B8DTL5Nojgd-51" value="" style="endArrow=classic;html=1;rounded=0;exitX=1;exitY=0.5;exitDx=0;exitDy=0;exitPerimeter=0;sketch=1;" parent="1" source="aB0IRVpQ1B8DTL5Nojgd-31" edge="1">
          <mxGeometry width="50" height="50" relative="1" as="geometry">
            <mxPoint x="380" y="260" as="sourcePoint" />
            <mxPoint x="410" y="260" as="targetPoint" />
          </mxGeometry>
        </mxCell>
        <mxCell id="aB0IRVpQ1B8DTL5Nojgd-52" value="" style="endArrow=classic;html=1;rounded=0;exitX=1;exitY=0.5;exitDx=0;exitDy=0;exitPerimeter=0;sketch=1;" parent="1" edge="1">
          <mxGeometry width="50" height="50" relative="1" as="geometry">
            <mxPoint x="451" y="259.5" as="sourcePoint" />
            <mxPoint x="500" y="260" as="targetPoint" />
          </mxGeometry>
        </mxCell>
        <mxCell id="aB0IRVpQ1B8DTL5Nojgd-53" value="" style="endArrow=classic;html=1;rounded=0;exitX=1;exitY=0.5;exitDx=0;exitDy=0;exitPerimeter=0;entryX=0;entryY=0.5;entryDx=0;entryDy=0;entryPerimeter=0;sketch=1;" parent="1" target="aB0IRVpQ1B8DTL5Nojgd-3" edge="1">
          <mxGeometry width="50" height="50" relative="1" as="geometry">
            <mxPoint x="530" y="259.5" as="sourcePoint" />
            <mxPoint x="570" y="260" as="targetPoint" />
          </mxGeometry>
        </mxCell>
        <mxCell id="aB0IRVpQ1B8DTL5Nojgd-54" value="Config Data" style="swimlane;labelBackgroundColor=none;labelBorderColor=none;strokeColor=#666666;strokeWidth=1;fillColor=#f5f5f5;fontColor=#333333;gradientColor=none;rounded=1;shadow=0;glass=0;sketch=1;swimlaneFillColor=default;" parent="1" vertex="1">
          <mxGeometry x="292" y="140" width="277" height="70" as="geometry" />
        </mxCell>
        <mxCell id="aB0IRVpQ1B8DTL5Nojgd-60" value="Lamda" style="text;html=1;align=center;verticalAlign=middle;resizable=0;points=[];autosize=1;strokeColor=none;fillColor=none;" parent="aB0IRVpQ1B8DTL5Nojgd-54" vertex="1">
          <mxGeometry x="113.5" y="50" width="50" height="20" as="geometry" />
        </mxCell>
        <mxCell id="aB0IRVpQ1B8DTL5Nojgd-61" value="Omega" style="text;html=1;align=center;verticalAlign=middle;resizable=0;points=[];autosize=1;strokeColor=none;fillColor=none;" parent="aB0IRVpQ1B8DTL5Nojgd-54" vertex="1">
          <mxGeometry x="205" y="50" width="50" height="20" as="geometry" />
        </mxCell>
        <mxCell id="aB0IRVpQ1B8DTL5Nojgd-62" value="Curent Epoch" style="text;html=1;align=center;verticalAlign=middle;resizable=0;points=[];autosize=1;strokeColor=none;fillColor=none;" parent="aB0IRVpQ1B8DTL5Nojgd-54" vertex="1">
          <mxGeometry x="185" y="30" width="90" height="20" as="geometry" />
        </mxCell>
        <mxCell id="aB0IRVpQ1B8DTL5Nojgd-55" value="Dataset size" style="text;html=1;align=center;verticalAlign=middle;resizable=0;points=[];autosize=1;strokeColor=none;fillColor=none;" parent="aB0IRVpQ1B8DTL5Nojgd-54" vertex="1">
          <mxGeometry x="15" y="30" width="80" height="20" as="geometry" />
        </mxCell>
        <mxCell id="aB0IRVpQ1B8DTL5Nojgd-59" value="Total Epochs" style="text;html=1;align=center;verticalAlign=middle;resizable=0;points=[];autosize=1;strokeColor=none;fillColor=none;" parent="aB0IRVpQ1B8DTL5Nojgd-54" vertex="1">
          <mxGeometry x="105" y="30" width="80" height="20" as="geometry" />
        </mxCell>
        <mxCell id="aB0IRVpQ1B8DTL5Nojgd-58" value="Batch size" style="text;html=1;align=center;verticalAlign=middle;resizable=0;points=[];autosize=1;strokeColor=none;fillColor=none;" parent="aB0IRVpQ1B8DTL5Nojgd-54" vertex="1">
          <mxGeometry x="20" y="50" width="70" height="20" as="geometry" />
        </mxCell>
        <mxCell id="aB0IRVpQ1B8DTL5Nojgd-63" value="" style="endArrow=classic;html=1;rounded=0;exitX=0.5;exitY=1;exitDx=0;exitDy=0;entryX=0.5;entryY=0;entryDx=0;entryDy=0;entryPerimeter=0;" parent="1" source="aB0IRVpQ1B8DTL5Nojgd-54" target="aB0IRVpQ1B8DTL5Nojgd-8" edge="1">
          <mxGeometry width="50" height="50" relative="1" as="geometry">
            <mxPoint x="340" y="270" as="sourcePoint" />
            <mxPoint x="390" y="220" as="targetPoint" />
          </mxGeometry>
        </mxCell>
        <mxCell id="aB0IRVpQ1B8DTL5Nojgd-81" value="&lt;b&gt;Augs&lt;br&gt;Pool&lt;/b&gt;" style="text;html=1;align=center;verticalAlign=middle;resizable=0;points=[];autosize=1;strokeColor=none;fillColor=none;" parent="1" vertex="1">
          <mxGeometry x="75" y="185" width="50" height="30" as="geometry" />
        </mxCell>
        <mxCell id="aB0IRVpQ1B8DTL5Nojgd-83" value="&lt;b&gt;Random Augs&lt;br&gt;Selector&lt;/b&gt;" style="text;html=1;align=center;verticalAlign=middle;resizable=0;points=[];autosize=1;strokeColor=none;fillColor=none;" parent="1" vertex="1">
          <mxGeometry x="190" y="185" width="100" height="30" as="geometry" />
        </mxCell>
        <mxCell id="aB0IRVpQ1B8DTL5Nojgd-84" value="&lt;b&gt;Params&amp;nbsp;&lt;br&gt;Updater&lt;/b&gt;" style="text;html=1;align=center;verticalAlign=middle;resizable=0;points=[];autosize=1;strokeColor=none;fillColor=none;" parent="1" vertex="1">
          <mxGeometry x="400.5" y="290" width="60" height="30" as="geometry" />
        </mxCell>
        <mxCell id="aB0IRVpQ1B8DTL5Nojgd-85" value="&lt;b&gt;&lt;font style=&quot;font-size: 11px&quot;&gt;Composer&lt;/font&gt;&lt;/b&gt;" style="text;html=1;align=center;verticalAlign=middle;resizable=0;points=[];autosize=1;strokeColor=none;fillColor=none;" parent="1" vertex="1">
          <mxGeometry x="600" y="280" width="70" height="20" as="geometry" />
        </mxCell>
        <mxCell id="aB0IRVpQ1B8DTL5Nojgd-88" value="&lt;b&gt;&lt;font style=&quot;font-size: 14px&quot;&gt;ProAug&lt;/font&gt;&lt;/b&gt;" style="text;html=1;align=center;verticalAlign=middle;resizable=0;points=[];autosize=1;strokeColor=none;fillColor=none;fontSize=11;" parent="1" vertex="1">
          <mxGeometry x="50" y="140" width="70" height="20" as="geometry" />
        </mxCell>
      </root>
    </mxGraphModel>
  </diagram>
</mxfile>
